<?xml version='1.0' encoding='UTF-8'?>
<svg xmlns="http://www.w3.org/2000/svg" xmlns:xlink="http://www.w3.org/1999/xlink" xmlns:xlink="http://www.w3.org/1999/xlink" width="500" zoomAndPan="magnify" viewBox="0 0 375 374.999991" height="500" preserveAspectRatio="xMidYMid meet" version="1.2" baseProfile="tiny" xmlns="http://www.w3.org/2000/svg">
  <defs>
    <clipPath>
      <path d="M 2 0.078125 L 14 0.078125 L 14 19 L 2 19 Z M 2 0.078125 "/>
    </clipPath>
    <clipPath>
      <path d="M 15 0.078125 L 31 0.078125 L 31 18 L 15 18 Z M 15 0.078125 "/>
    </clipPath>
    <clipPath>
      <path d="M 32 0.078125 L 48 0.078125 L 48 18 L 32 18 Z M 32 0.078125 "/>
    </clipPath>
    <clipPath>
      <path d="M 48 0.078125 L 63 0.078125 L 63 18 L 48 18 Z M 48 0.078125 "/>
    </clipPath>
    <clipPath>
      <path d="M 69 0.078125 L 86 0.078125 L 86 18 L 69 18 Z M 69 0.078125 "/>
    </clipPath>
    <clipPath>
      <path d="M 86 0.078125 L 105 0.078125 L 105 19 L 86 19 Z M 86 0.078125 "/>
    </clipPath>
    <clipPath>
      <path d="M 112 0.078125 L 125 0.078125 L 125 19 L 112 19 Z M 112 0.078125 "/>
    </clipPath>
    <clipPath>
      <path d="M 126 0.078125 L 146 0.078125 L 146 19 L 126 19 Z M 126 0.078125 "/>
    </clipPath>
    <clipPath>
      <path d="M 146 0.078125 L 164 0.078125 L 164 19 L 146 19 Z M 146 0.078125 "/>
    </clipPath>
    <clipPath>
      <path d="M 164 0.078125 L 182 0.078125 L 182 19 L 164 19 Z M 164 0.078125 "/>
    </clipPath>
    <clipPath>
      <path d="M 182 0.078125 L 199 0.078125 L 199 18 L 182 18 Z M 182 0.078125 "/>
    </clipPath>
    <clipPath>
      <path d="M 200 0.078125 L 212 0.078125 L 212 19 L 200 19 Z M 200 0.078125 "/>
    </clipPath>
    <clipPath>
      <path d="M 213 0.078125 L 226 0.078125 L 226 19 L 213 19 Z M 213 0.078125 "/>
    </clipPath>
    <clipPath>
      <rect x="0" width="228" y="0" height="26"/>
    </clipPath>
  </defs>
  <g>
    <path d="M -0.000203474 2.000573 L 102.656053 2.000573 " transform="matrix(0.75,0,0,0.75,124.027496,106.507383)"/>
    <path d="M -0.00151628 2.001153 L 170.878703 2.001153 " transform="matrix(0,0.75,-0.75,0,126.977427,108.00895)"/>
    <path d="M -0.000203474 2.000458 L 176.301891 2.000458 " transform="matrix(0.75,0,0,0.75,124.027496,233.163719)"/>
    <path d="M -0.00128217 2.002302 L 110.896528 1.999979 " transform="matrix(0.00445772,0.749987,-0.749987,0.00445772,256.224362,152.980317)"/>
    <path d="M 0.00133332 8.001269 L 146.57426 8.001269 " transform="matrix(0,-0.75,0.75,0,134.311548,230.102562)"/>
    <path d="M 0.00108052 7.001154 L 117.58963 7.001154 " transform="matrix(0,-0.75,0.75,0,153.647572,230.102373)"/>
    <path d="M 0.00084692 5.998617 L 88.605019 5.998617 " transform="matrix(0,-0.75,0.75,0,173.676819,230.102198)"/>
    <path d="M 0.000043727 4.001901 L 74.166715 4.001901 " transform="matrix(0.000000001309,-0.75,0.75,0.000000001309,198.014199,230.101595)"/>
    <path d="M -0.000671814 2.49741 L 51.94204 2.49741 " transform="matrix(0,-0.75,0.75,0,219.017568,230.104965)"/>
    <path d="M 0.00215572 1.998934 L 35.897991 1.998934 " transform="matrix(0,-0.75,0.75,0,240.473456,230.103179)"/>
    <g>
      <g transform="translate(180.462369, 143.330124)">
        <path d="M 9.578125 -25.078125 C 10.691406 -25.078125 11.65625 -24.960938 12.46875 -24.734375 C 13.28125 -24.503906 14.171875 -24.1875 15.140625 -23.78125 C 15.472656 -23.644531 15.796875 -23.519531 16.109375 -23.40625 C 16.421875 -23.300781 16.679688 -23.25 16.890625 -23.25 C 17.273438 -23.25 17.585938 -23.40625 17.828125 -23.71875 C 18.066406 -24.03125 18.1875 -24.484375 18.1875 -25.078125 L 18.859375 -25.078125 L 18.859375 -17.140625 L 18.1875 -17.140625 C 17.945312 -18.398438 17.429688 -19.53125 16.640625 -20.53125 C 15.859375 -21.53125 14.882812 -22.304688 13.71875 -22.859375 C 12.550781 -23.410156 11.300781 -23.6875 9.96875 -23.6875 C 8.507812 -23.6875 7.316406 -23.332031 6.390625 -22.625 C 5.460938 -21.925781 5 -21.050781 5 -20 C 5 -19.21875 5.269531 -18.550781 5.8125 -18 C 6.363281 -17.457031 7.050781 -17.003906 7.875 -16.640625 C 8.695312 -16.285156 9.832031 -15.867188 11.28125 -15.390625 C 12.738281 -14.921875 13.953125 -14.484375 14.921875 -14.078125 C 15.898438 -13.671875 16.757812 -13.171875 17.5 -12.578125 C 18.332031 -11.878906 19.015625 -11.050781 19.546875 -10.09375 C 20.085938 -9.144531 20.359375 -8.078125 20.359375 -6.890625 C 20.359375 -5.441406 19.960938 -4.15625 19.171875 -3.03125 C 18.390625 -1.914062 17.289062 -1.046875 15.875 -0.421875 C 14.457031 0.191406 12.820312 0.5 10.96875 0.5 C 9.800781 0.5 8.816406 0.394531 8.015625 0.1875 C 7.222656 -0.0078125 6.410156 -0.273438 5.578125 -0.609375 C 4.785156 -0.941406 4.203125 -1.109375 3.828125 -1.109375 C 3.390625 -1.109375 3.015625 -0.976562 2.703125 -0.71875 C 2.398438 -0.457031 2.128906 -0.0507812 1.890625 0.5 L 1.21875 0.5 L 1.21875 -8.5 L 1.890625 -8.5 C 2.316406 -6.113281 3.332031 -4.222656 4.9375 -2.828125 C 6.550781 -1.441406 8.5 -0.75 10.78125 -0.75 C 12.5 -0.75 13.859375 -1.097656 14.859375 -1.796875 C 15.859375 -2.503906 16.359375 -3.453125 16.359375 -4.640625 C 16.359375 -5.566406 16.066406 -6.351562 15.484375 -7 C 14.898438 -7.644531 14.171875 -8.171875 13.296875 -8.578125 C 12.429688 -8.984375 11.257812 -9.4375 9.78125 -9.9375 C 7.945312 -10.570312 6.460938 -11.171875 5.328125 -11.734375 C 4.203125 -12.296875 3.238281 -13.082031 2.4375 -14.09375 C 1.644531 -15.101562 1.25 -16.382812 1.25 -17.9375 C 1.25 -19.289062 1.601562 -20.507812 2.3125 -21.59375 C 3.03125 -22.675781 4.019531 -23.523438 5.28125 -24.140625 C 6.539062 -24.765625 7.972656 -25.078125 9.578125 -25.078125 Z M 9.578125 -25.078125 "/>
      </g>
    </g>
    <g>
      <g transform="translate(202.036518, 143.330124)">
        <path d="M 22.828125 -18.109375 L 22.1875 -18.109375 C 22.019531 -19.796875 21.488281 -21.066406 20.59375 -21.921875 C 19.695312 -22.785156 18.675781 -23.21875 17.53125 -23.21875 L 14.75 -23.21875 L 14.75 -3.859375 C 14.75 -2.972656 14.867188 -2.300781 15.109375 -1.84375 C 15.347656 -1.394531 15.71875 -1.085938 16.21875 -0.921875 C 16.71875 -0.753906 17.421875 -0.660156 18.328125 -0.640625 L 18.328125 0 L 5.46875 0 L 5.46875 -0.640625 C 6.375 -0.640625 7.066406 -0.703125 7.546875 -0.828125 C 8.035156 -0.960938 8.40625 -1.253906 8.65625 -1.703125 C 8.90625 -2.160156 9.03125 -2.851562 9.03125 -3.78125 L 9.03125 -23.21875 L 5.96875 -23.21875 C 4.894531 -23.21875 3.941406 -22.742188 3.109375 -21.796875 C 2.273438 -20.859375 1.773438 -19.628906 1.609375 -18.109375 L 0.96875 -18.109375 L 0.96875 -24.53125 L 22.828125 -24.53125 Z M 22.828125 -18.109375 "/>
      </g>
    </g>
    <g>
      <g transform="translate(225.860952, 143.330124)">
        <path d="M 9.578125 -25.078125 C 10.691406 -25.078125 11.65625 -24.960938 12.46875 -24.734375 C 13.28125 -24.503906 14.171875 -24.1875 15.140625 -23.78125 C 15.472656 -23.644531 15.796875 -23.519531 16.109375 -23.40625 C 16.421875 -23.300781 16.679688 -23.25 16.890625 -23.25 C 17.273438 -23.25 17.585938 -23.40625 17.828125 -23.71875 C 18.066406 -24.03125 18.1875 -24.484375 18.1875 -25.078125 L 18.859375 -25.078125 L 18.859375 -17.140625 L 18.1875 -17.140625 C 17.945312 -18.398438 17.429688 -19.53125 16.640625 -20.53125 C 15.859375 -21.53125 14.882812 -22.304688 13.71875 -22.859375 C 12.550781 -23.410156 11.300781 -23.6875 9.96875 -23.6875 C 8.507812 -23.6875 7.316406 -23.332031 6.390625 -22.625 C 5.460938 -21.925781 5 -21.050781 5 -20 C 5 -19.21875 5.269531 -18.550781 5.8125 -18 C 6.363281 -17.457031 7.050781 -17.003906 7.875 -16.640625 C 8.695312 -16.285156 9.832031 -15.867188 11.28125 -15.390625 C 12.738281 -14.921875 13.953125 -14.484375 14.921875 -14.078125 C 15.898438 -13.671875 16.757812 -13.171875 17.5 -12.578125 C 18.332031 -11.878906 19.015625 -11.050781 19.546875 -10.09375 C 20.085938 -9.144531 20.359375 -8.078125 20.359375 -6.890625 C 20.359375 -5.441406 19.960938 -4.15625 19.171875 -3.03125 C 18.390625 -1.914062 17.289062 -1.046875 15.875 -0.421875 C 14.457031 0.191406 12.820312 0.5 10.96875 0.5 C 9.800781 0.5 8.816406 0.394531 8.015625 0.1875 C 7.222656 -0.0078125 6.410156 -0.273438 5.578125 -0.609375 C 4.785156 -0.941406 4.203125 -1.109375 3.828125 -1.109375 C 3.390625 -1.109375 3.015625 -0.976562 2.703125 -0.71875 C 2.398438 -0.457031 2.128906 -0.0507812 1.890625 0.5 L 1.21875 0.5 L 1.21875 -8.5 L 1.890625 -8.5 C 2.316406 -6.113281 3.332031 -4.222656 4.9375 -2.828125 C 6.550781 -1.441406 8.5 -0.75 10.78125 -0.75 C 12.5 -0.75 13.859375 -1.097656 14.859375 -1.796875 C 15.859375 -2.503906 16.359375 -3.453125 16.359375 -4.640625 C 16.359375 -5.566406 16.066406 -6.351562 15.484375 -7 C 14.898438 -7.644531 14.171875 -8.171875 13.296875 -8.578125 C 12.429688 -8.984375 11.257812 -9.4375 9.78125 -9.9375 C 7.945312 -10.570312 6.460938 -11.171875 5.328125 -11.734375 C 4.203125 -12.296875 3.238281 -13.082031 2.4375 -14.09375 C 1.644531 -15.101562 1.25 -16.382812 1.25 -17.9375 C 1.25 -19.289062 1.601562 -20.507812 2.3125 -21.59375 C 3.03125 -22.675781 4.019531 -23.523438 5.28125 -24.140625 C 6.539062 -24.765625 7.972656 -25.078125 9.578125 -25.078125 Z M 9.578125 -25.078125 "/>
      </g>
    </g>
    <g transform="matrix(1,0,0,1,74,244)">
      <g clip-path="url(#6b99f3eef4)">
        <g clip-rule="nonzero" clip-path="url(#468d554758)">
          <g>
            <g transform="translate(0.762433, 17.910032)">
              <path d="M 6.296875 -17.5625 C 6.867188 -17.5625 7.363281 -17.503906 7.78125 -17.390625 C 8.195312 -17.285156 8.625 -17.140625 9.0625 -16.953125 C 9.269531 -16.867188 9.476562 -16.796875 9.6875 -16.734375 C 9.894531 -16.671875 10.082031 -16.640625 10.25 -16.640625 C 10.65625 -16.640625 10.972656 -16.945312 11.203125 -17.5625 L 11.6875 -17.5625 L 11.6875 -11.859375 L 11.203125 -11.859375 C 11.117188 -12.742188 10.851562 -13.546875 10.40625 -14.265625 C 9.96875 -14.992188 9.421875 -15.566406 8.765625 -15.984375 C 8.109375 -16.398438 7.40625 -16.609375 6.65625 -16.609375 C 5.832031 -16.609375 5.128906 -16.363281 4.546875 -15.875 C 3.960938 -15.382812 3.671875 -14.785156 3.671875 -14.078125 C 3.671875 -13.265625 4.070312 -12.554688 4.875 -11.953125 C 5.445312 -11.535156 6.238281 -11.035156 7.25 -10.453125 C 8.15625 -9.898438 8.90625 -9.425781 9.5 -9.03125 C 10.101562 -8.632812 10.664062 -8.203125 11.1875 -7.734375 C 11.644531 -7.273438 12.007812 -6.753906 12.28125 -6.171875 C 12.5625 -5.585938 12.703125 -4.988281 12.703125 -4.375 C 12.703125 -3.53125 12.46875 -2.738281 12 -2 C 11.539062 -1.269531 10.90625 -0.691406 10.09375 -0.265625 C 9.28125 0.160156 8.390625 0.375 7.421875 0.375 C 6.804688 0.375 6.257812 0.316406 5.78125 0.203125 C 5.3125 0.0976562 4.816406 -0.0390625 4.296875 -0.21875 C 3.734375 -0.425781 3.3125 -0.53125 3.03125 -0.53125 C 2.570312 -0.53125 2.226562 -0.226562 2 0.375 L 1.546875 0.375 L 1.546875 -5.40625 L 2 -5.40625 C 2.28125 -3.914062 2.84375 -2.738281 3.6875 -1.875 C 4.53125 -1.007812 5.617188 -0.578125 6.953125 -0.578125 C 7.898438 -0.578125 8.679688 -0.832031 9.296875 -1.34375 C 9.921875 -1.863281 10.234375 -2.515625 10.234375 -3.296875 C 10.234375 -3.703125 10.15625 -4.070312 10 -4.40625 C 9.851562 -4.738281 9.601562 -5.097656 9.25 -5.484375 C 8.9375 -5.816406 8.488281 -6.175781 7.90625 -6.5625 C 7.320312 -6.957031 6.546875 -7.445312 5.578125 -8.03125 C 4.765625 -8.53125 4.140625 -8.925781 3.703125 -9.21875 C 3.265625 -9.507812 2.941406 -9.765625 2.734375 -9.984375 C 1.878906 -10.847656 1.453125 -11.890625 1.453125 -13.109375 C 1.453125 -13.941406 1.664062 -14.695312 2.09375 -15.375 C 2.519531 -16.050781 3.097656 -16.582031 3.828125 -16.96875 C 4.554688 -17.363281 5.378906 -17.5625 6.296875 -17.5625 Z M 6.296875 -17.5625 "/>
            </g>
          </g>
        </g>
        <g clip-rule="nonzero" clip-path="url(#1d477452f9)">
          <g>
            <g transform="translate(14.572613, 17.910032)">
              <path d="M 16.0625 -13.28125 L 15.578125 -13.28125 C 15.347656 -15.144531 14.34375 -16.078125 12.5625 -16.078125 L 9.6875 -16.078125 L 9.6875 -2.34375 C 9.6875 -1.59375 9.898438 -1.085938 10.328125 -0.828125 C 10.765625 -0.578125 11.382812 -0.453125 12.1875 -0.453125 L 12.1875 0 L 4.484375 0 L 4.484375 -0.453125 C 5.359375 -0.453125 5.992188 -0.597656 6.390625 -0.890625 C 6.785156 -1.191406 6.984375 -1.738281 6.984375 -2.53125 L 6.984375 -16.078125 L 3.921875 -16.078125 C 3.140625 -16.078125 2.484375 -15.847656 1.953125 -15.390625 C 1.429688 -14.929688 1.140625 -14.226562 1.078125 -13.28125 L 0.625 -13.28125 L 0.75 -17.1875 L 15.9375 -17.1875 Z M 16.0625 -13.28125 "/>
            </g>
          </g>
        </g>
        <g clip-rule="nonzero" clip-path="url(#f3bc85f8a5)">
          <g>
            <g transform="translate(31.259919, 17.910032)">
              <path d="M 14.734375 -13.390625 L 14.3125 -13.390625 C 14.144531 -14.335938 13.832031 -15.039062 13.375 -15.5 C 12.925781 -15.957031 12.300781 -16.1875 11.5 -16.1875 L 6.078125 -16.1875 L 6.078125 -9.5625 L 10.53125 -9.5625 C 11.332031 -9.5625 11.898438 -9.757812 12.234375 -10.15625 C 12.566406 -10.550781 12.742188 -11.1875 12.765625 -12.0625 L 13.203125 -12.0625 L 13.203125 -6 L 12.765625 -6 C 12.765625 -6.863281 12.59375 -7.503906 12.25 -7.921875 C 11.914062 -8.347656 11.328125 -8.5625 10.484375 -8.5625 L 6.078125 -8.5625 L 6.078125 -2.28125 C 6.078125 -1.425781 6.410156 -1 7.078125 -1 L 11.484375 -1 C 12.398438 -1 13.207031 -1.273438 13.90625 -1.828125 C 14.601562 -2.390625 15.171875 -3.207031 15.609375 -4.28125 L 16.140625 -4.28125 L 14.734375 0 L 0.90625 0 L 0.90625 -0.453125 C 1.769531 -0.453125 2.394531 -0.597656 2.78125 -0.890625 C 3.175781 -1.179688 3.375 -1.726562 3.375 -2.53125 L 3.375 -14.828125 C 3.375 -15.492188 3.175781 -15.976562 2.78125 -16.28125 C 2.394531 -16.582031 1.769531 -16.734375 0.90625 -16.734375 L 0.90625 -17.1875 L 14.53125 -17.1875 Z M 14.734375 -13.390625 "/>
            </g>
          </g>
        </g>
        <g clip-rule="nonzero" clip-path="url(#cf32064b17)">
          <g>
            <g transform="translate(47.947225, 17.910032)">
              <path d="M 14.65625 -12.375 C 14.65625 -11.5 14.410156 -10.695312 13.921875 -9.96875 C 13.441406 -9.238281 12.78125 -8.664062 11.9375 -8.25 C 11.101562 -7.832031 10.160156 -7.625 9.109375 -7.625 C 7.941406 -7.625 6.832031 -7.816406 5.78125 -8.203125 L 5.78125 -2.53125 C 5.78125 -1.695312 5.984375 -1.140625 6.390625 -0.859375 C 6.796875 -0.585938 7.453125 -0.453125 8.359375 -0.453125 L 8.359375 0 L 0.625 0 L 0.625 -0.453125 C 1.539062 -0.453125 2.175781 -0.601562 2.53125 -0.90625 C 2.894531 -1.21875 3.078125 -1.757812 3.078125 -2.53125 L 3.078125 -14.6875 C 3.078125 -15.46875 2.882812 -16.003906 2.5 -16.296875 C 2.113281 -16.585938 1.539062 -16.734375 0.78125 -16.734375 L 0.625 -16.734375 L 0.625 -17.1875 L 8.15625 -17.1875 C 9.238281 -17.1875 10.273438 -17.019531 11.265625 -16.6875 C 12.265625 -16.351562 13.078125 -15.820312 13.703125 -15.09375 C 14.335938 -14.375 14.65625 -13.46875 14.65625 -12.375 Z M 5.78125 -15.90625 L 5.78125 -9.078125 C 6.5625 -8.742188 7.269531 -8.578125 7.90625 -8.578125 C 8.988281 -8.578125 9.863281 -8.914062 10.53125 -9.59375 C 11.195312 -10.269531 11.53125 -11.164062 11.53125 -12.28125 C 11.53125 -13.445312 11.179688 -14.394531 10.484375 -15.125 C 9.785156 -15.863281 8.816406 -16.234375 7.578125 -16.234375 C 7.023438 -16.234375 6.425781 -16.125 5.78125 -15.90625 Z M 5.78125 -15.90625 "/>
            </g>
          </g>
        </g>
        <g>
          <g transform="translate(63.058371, 17.910032)">
            <path d=""/>
          </g>
        </g>
        <g clip-rule="nonzero" clip-path="url(#7514447e12)">
          <g>
            <g transform="translate(69.312986, 17.910032)">
              <path d="M 16.0625 -13.28125 L 15.578125 -13.28125 C 15.347656 -15.144531 14.34375 -16.078125 12.5625 -16.078125 L 9.6875 -16.078125 L 9.6875 -2.34375 C 9.6875 -1.59375 9.898438 -1.085938 10.328125 -0.828125 C 10.765625 -0.578125 11.382812 -0.453125 12.1875 -0.453125 L 12.1875 0 L 4.484375 0 L 4.484375 -0.453125 C 5.359375 -0.453125 5.992188 -0.597656 6.390625 -0.890625 C 6.785156 -1.191406 6.984375 -1.738281 6.984375 -2.53125 L 6.984375 -16.078125 L 3.921875 -16.078125 C 3.140625 -16.078125 2.484375 -15.847656 1.953125 -15.390625 C 1.429688 -14.929688 1.140625 -14.226562 1.078125 -13.28125 L 0.625 -13.28125 L 0.75 -17.1875 L 15.9375 -17.1875 Z M 16.0625 -13.28125 "/>
            </g>
          </g>
        </g>
        <g clip-rule="nonzero" clip-path="url(#6b0929986c)">
          <g>
            <g transform="translate(86.000292, 17.910032)">
              <path d="M 9.625 -17.5625 C 11.207031 -17.5625 12.664062 -17.160156 14 -16.359375 C 15.34375 -15.554688 16.40625 -14.46875 17.1875 -13.09375 C 17.96875 -11.71875 18.359375 -10.210938 18.359375 -8.578125 C 18.359375 -6.960938 17.96875 -5.46875 17.1875 -4.09375 C 16.40625 -2.71875 15.34375 -1.628906 14 -0.828125 C 12.664062 -0.0234375 11.207031 0.375 9.625 0.375 C 8.039062 0.375 6.582031 -0.0234375 5.25 -0.828125 C 3.914062 -1.628906 2.859375 -2.71875 2.078125 -4.09375 C 1.304688 -5.46875 0.921875 -6.960938 0.921875 -8.578125 C 0.921875 -10.210938 1.304688 -11.71875 2.078125 -13.09375 C 2.859375 -14.46875 3.914062 -15.554688 5.25 -16.359375 C 6.582031 -17.160156 8.039062 -17.5625 9.625 -17.5625 Z M 4.046875 -8.578125 C 4.046875 -6.972656 4.273438 -5.566406 4.734375 -4.359375 C 5.191406 -3.148438 5.84375 -2.21875 6.6875 -1.5625 C 7.53125 -0.90625 8.507812 -0.578125 9.625 -0.578125 C 10.75 -0.578125 11.734375 -0.90625 12.578125 -1.5625 C 13.429688 -2.21875 14.085938 -3.148438 14.546875 -4.359375 C 15.003906 -5.566406 15.234375 -6.972656 15.234375 -8.578125 C 15.234375 -10.148438 15.007812 -11.539062 14.5625 -12.75 C 14.113281 -13.96875 13.46875 -14.914062 12.625 -15.59375 C 11.78125 -16.269531 10.773438 -16.609375 9.609375 -16.609375 C 8.453125 -16.609375 7.457031 -16.265625 6.625 -15.578125 C 5.789062 -14.898438 5.148438 -13.953125 4.703125 -12.734375 C 4.265625 -11.515625 4.046875 -10.128906 4.046875 -8.578125 Z M 4.046875 -8.578125 "/>
            </g>
          </g>
        </g>
        <g>
          <g transform="translate(105.289514, 17.910032)">
            <path d=""/>
          </g>
        </g>
        <g clip-rule="nonzero" clip-path="url(#0a983eef36)">
          <g>
            <g transform="translate(111.544129, 17.910032)">
              <path d="M 6.296875 -17.5625 C 6.867188 -17.5625 7.363281 -17.503906 7.78125 -17.390625 C 8.195312 -17.285156 8.625 -17.140625 9.0625 -16.953125 C 9.269531 -16.867188 9.476562 -16.796875 9.6875 -16.734375 C 9.894531 -16.671875 10.082031 -16.640625 10.25 -16.640625 C 10.65625 -16.640625 10.972656 -16.945312 11.203125 -17.5625 L 11.6875 -17.5625 L 11.6875 -11.859375 L 11.203125 -11.859375 C 11.117188 -12.742188 10.851562 -13.546875 10.40625 -14.265625 C 9.96875 -14.992188 9.421875 -15.566406 8.765625 -15.984375 C 8.109375 -16.398438 7.40625 -16.609375 6.65625 -16.609375 C 5.832031 -16.609375 5.128906 -16.363281 4.546875 -15.875 C 3.960938 -15.382812 3.671875 -14.785156 3.671875 -14.078125 C 3.671875 -13.265625 4.070312 -12.554688 4.875 -11.953125 C 5.445312 -11.535156 6.238281 -11.035156 7.25 -10.453125 C 8.15625 -9.898438 8.90625 -9.425781 9.5 -9.03125 C 10.101562 -8.632812 10.664062 -8.203125 11.1875 -7.734375 C 11.644531 -7.273438 12.007812 -6.753906 12.28125 -6.171875 C 12.5625 -5.585938 12.703125 -4.988281 12.703125 -4.375 C 12.703125 -3.53125 12.46875 -2.738281 12 -2 C 11.539062 -1.269531 10.90625 -0.691406 10.09375 -0.265625 C 9.28125 0.160156 8.390625 0.375 7.421875 0.375 C 6.804688 0.375 6.257812 0.316406 5.78125 0.203125 C 5.3125 0.0976562 4.816406 -0.0390625 4.296875 -0.21875 C 3.734375 -0.425781 3.3125 -0.53125 3.03125 -0.53125 C 2.570312 -0.53125 2.226562 -0.226562 2 0.375 L 1.546875 0.375 L 1.546875 -5.40625 L 2 -5.40625 C 2.28125 -3.914062 2.84375 -2.738281 3.6875 -1.875 C 4.53125 -1.007812 5.617188 -0.578125 6.953125 -0.578125 C 7.898438 -0.578125 8.679688 -0.832031 9.296875 -1.34375 C 9.921875 -1.863281 10.234375 -2.515625 10.234375 -3.296875 C 10.234375 -3.703125 10.15625 -4.070312 10 -4.40625 C 9.851562 -4.738281 9.601562 -5.097656 9.25 -5.484375 C 8.9375 -5.816406 8.488281 -6.175781 7.90625 -6.5625 C 7.320312 -6.957031 6.546875 -7.445312 5.578125 -8.03125 C 4.765625 -8.53125 4.140625 -8.925781 3.703125 -9.21875 C 3.265625 -9.507812 2.941406 -9.765625 2.734375 -9.984375 C 1.878906 -10.847656 1.453125 -11.890625 1.453125 -13.109375 C 1.453125 -13.941406 1.664062 -14.695312 2.09375 -15.375 C 2.519531 -16.050781 3.097656 -16.582031 3.828125 -16.96875 C 4.554688 -17.363281 5.378906 -17.5625 6.296875 -17.5625 Z M 6.296875 -17.5625 "/>
            </g>
          </g>
        </g>
        <g clip-rule="nonzero" clip-path="url(#26dfc69e33)">
          <g>
            <g transform="translate(125.35431, 17.910032)">
              <path d="M 8.484375 -16.734375 C 7.910156 -16.710938 7.460938 -16.648438 7.140625 -16.546875 C 6.816406 -16.441406 6.5625 -16.242188 6.375 -15.953125 C 6.195312 -15.660156 6.109375 -15.226562 6.109375 -14.65625 L 6.109375 -5.171875 C 6.109375 -3.890625 6.5 -2.820312 7.28125 -1.96875 C 8.0625 -1.125 9.238281 -0.703125 10.8125 -0.703125 C 12.65625 -0.703125 14.046875 -1.160156 14.984375 -2.078125 C 15.921875 -2.992188 16.390625 -4.359375 16.390625 -6.171875 L 16.390625 -14.703125 C 16.390625 -15.453125 16.191406 -15.976562 15.796875 -16.28125 C 15.398438 -16.582031 14.820312 -16.734375 14.0625 -16.734375 L 13.8125 -16.734375 L 13.8125 -17.1875 L 20.109375 -17.1875 L 20.109375 -16.734375 C 19.472656 -16.734375 18.96875 -16.679688 18.59375 -16.578125 C 18.21875 -16.484375 17.929688 -16.285156 17.734375 -15.984375 C 17.546875 -15.679688 17.453125 -15.238281 17.453125 -14.65625 L 17.453125 -5.875 C 17.453125 -4.757812 17.203125 -3.726562 16.703125 -2.78125 C 16.203125 -1.84375 15.441406 -1.082031 14.421875 -0.5 C 13.398438 0.0820312 12.117188 0.375 10.578125 0.375 C 8.828125 0.375 7.414062 0.0859375 6.34375 -0.484375 C 5.28125 -1.054688 4.523438 -1.789062 4.078125 -2.6875 C 3.628906 -3.582031 3.40625 -4.546875 3.40625 -5.578125 L 3.40625 -14.03125 C 3.40625 -14.769531 3.335938 -15.328125 3.203125 -15.703125 C 3.066406 -16.078125 2.828125 -16.34375 2.484375 -16.5 C 2.140625 -16.65625 1.632812 -16.734375 0.96875 -16.734375 L 0.796875 -16.734375 L 0.796875 -17.1875 L 8.484375 -17.1875 Z M 8.484375 -16.734375 "/>
            </g>
          </g>
        </g>
        <g clip-rule="nonzero" clip-path="url(#ee4cf2df6f)">
          <g>
            <g transform="translate(145.94449, 17.910032)">
              <path d="M 10.4375 -17.5625 C 11.269531 -17.5625 11.988281 -17.476562 12.59375 -17.3125 C 13.207031 -17.15625 13.796875 -16.953125 14.359375 -16.703125 C 14.828125 -16.523438 15.128906 -16.4375 15.265625 -16.4375 C 15.460938 -16.4375 15.648438 -16.539062 15.828125 -16.75 C 16.015625 -16.957031 16.140625 -17.226562 16.203125 -17.5625 L 16.640625 -17.5625 L 17.0625 -11.75 L 16.640625 -11.75 C 16.484375 -12.769531 16.109375 -13.644531 15.515625 -14.375 C 14.929688 -15.113281 14.207031 -15.671875 13.34375 -16.046875 C 12.488281 -16.421875 11.582031 -16.609375 10.625 -16.609375 C 8.675781 -16.609375 7.113281 -15.910156 5.9375 -14.515625 C 4.757812 -13.128906 4.171875 -11.023438 4.171875 -8.203125 C 4.171875 -6.535156 4.492188 -5.140625 5.140625 -4.015625 C 5.785156 -2.890625 6.628906 -2.054688 7.671875 -1.515625 C 8.710938 -0.972656 9.820312 -0.703125 11 -0.703125 C 12.21875 -0.703125 13.378906 -1.007812 14.484375 -1.625 C 15.585938 -2.238281 16.445312 -3.066406 17.0625 -4.109375 L 17.4375 -3.859375 C 15.78125 -1.035156 13.34375 0.375 10.125 0.375 C 8.457031 0.375 6.929688 -0.0078125 5.546875 -0.78125 C 4.171875 -1.5625 3.078125 -2.617188 2.265625 -3.953125 C 1.453125 -5.285156 1.046875 -6.753906 1.046875 -8.359375 C 1.046875 -10.035156 1.460938 -11.578125 2.296875 -12.984375 C 3.128906 -14.398438 4.265625 -15.515625 5.703125 -16.328125 C 7.140625 -17.148438 8.71875 -17.5625 10.4375 -17.5625 Z M 10.4375 -17.5625 "/>
            </g>
          </g>
        </g>
        <g clip-rule="nonzero" clip-path="url(#9f4ee6ae7b)">
          <g>
            <g transform="translate(163.932754, 17.910032)">
              <path d="M 10.4375 -17.5625 C 11.269531 -17.5625 11.988281 -17.476562 12.59375 -17.3125 C 13.207031 -17.15625 13.796875 -16.953125 14.359375 -16.703125 C 14.828125 -16.523438 15.128906 -16.4375 15.265625 -16.4375 C 15.460938 -16.4375 15.648438 -16.539062 15.828125 -16.75 C 16.015625 -16.957031 16.140625 -17.226562 16.203125 -17.5625 L 16.640625 -17.5625 L 17.0625 -11.75 L 16.640625 -11.75 C 16.484375 -12.769531 16.109375 -13.644531 15.515625 -14.375 C 14.929688 -15.113281 14.207031 -15.671875 13.34375 -16.046875 C 12.488281 -16.421875 11.582031 -16.609375 10.625 -16.609375 C 8.675781 -16.609375 7.113281 -15.910156 5.9375 -14.515625 C 4.757812 -13.128906 4.171875 -11.023438 4.171875 -8.203125 C 4.171875 -6.535156 4.492188 -5.140625 5.140625 -4.015625 C 5.785156 -2.890625 6.628906 -2.054688 7.671875 -1.515625 C 8.710938 -0.972656 9.820312 -0.703125 11 -0.703125 C 12.21875 -0.703125 13.378906 -1.007812 14.484375 -1.625 C 15.585938 -2.238281 16.445312 -3.066406 17.0625 -4.109375 L 17.4375 -3.859375 C 15.78125 -1.035156 13.34375 0.375 10.125 0.375 C 8.457031 0.375 6.929688 -0.0078125 5.546875 -0.78125 C 4.171875 -1.5625 3.078125 -2.617188 2.265625 -3.953125 C 1.453125 -5.285156 1.046875 -6.753906 1.046875 -8.359375 C 1.046875 -10.035156 1.460938 -11.578125 2.296875 -12.984375 C 3.128906 -14.398438 4.265625 -15.515625 5.703125 -16.328125 C 7.140625 -17.148438 8.71875 -17.5625 10.4375 -17.5625 Z M 10.4375 -17.5625 "/>
            </g>
          </g>
        </g>
        <g clip-rule="nonzero" clip-path="url(#d16a7ca72e)">
          <g>
            <g transform="translate(181.921018, 17.910032)">
              <path d="M 14.734375 -13.390625 L 14.3125 -13.390625 C 14.144531 -14.335938 13.832031 -15.039062 13.375 -15.5 C 12.925781 -15.957031 12.300781 -16.1875 11.5 -16.1875 L 6.078125 -16.1875 L 6.078125 -9.5625 L 10.53125 -9.5625 C 11.332031 -9.5625 11.898438 -9.757812 12.234375 -10.15625 C 12.566406 -10.550781 12.742188 -11.1875 12.765625 -12.0625 L 13.203125 -12.0625 L 13.203125 -6 L 12.765625 -6 C 12.765625 -6.863281 12.59375 -7.503906 12.25 -7.921875 C 11.914062 -8.347656 11.328125 -8.5625 10.484375 -8.5625 L 6.078125 -8.5625 L 6.078125 -2.28125 C 6.078125 -1.425781 6.410156 -1 7.078125 -1 L 11.484375 -1 C 12.398438 -1 13.207031 -1.273438 13.90625 -1.828125 C 14.601562 -2.390625 15.171875 -3.207031 15.609375 -4.28125 L 16.140625 -4.28125 L 14.734375 0 L 0.90625 0 L 0.90625 -0.453125 C 1.769531 -0.453125 2.394531 -0.597656 2.78125 -0.890625 C 3.175781 -1.179688 3.375 -1.726562 3.375 -2.53125 L 3.375 -14.828125 C 3.375 -15.492188 3.175781 -15.976562 2.78125 -16.28125 C 2.394531 -16.582031 1.769531 -16.734375 0.90625 -16.734375 L 0.90625 -17.1875 L 14.53125 -17.1875 Z M 14.734375 -13.390625 "/>
            </g>
          </g>
        </g>
        <g clip-rule="nonzero" clip-path="url(#6c0b39ba71)">
          <g>
            <g transform="translate(198.608324, 17.910032)">
              <path d="M 6.296875 -17.5625 C 6.867188 -17.5625 7.363281 -17.503906 7.78125 -17.390625 C 8.195312 -17.285156 8.625 -17.140625 9.0625 -16.953125 C 9.269531 -16.867188 9.476562 -16.796875 9.6875 -16.734375 C 9.894531 -16.671875 10.082031 -16.640625 10.25 -16.640625 C 10.65625 -16.640625 10.972656 -16.945312 11.203125 -17.5625 L 11.6875 -17.5625 L 11.6875 -11.859375 L 11.203125 -11.859375 C 11.117188 -12.742188 10.851562 -13.546875 10.40625 -14.265625 C 9.96875 -14.992188 9.421875 -15.566406 8.765625 -15.984375 C 8.109375 -16.398438 7.40625 -16.609375 6.65625 -16.609375 C 5.832031 -16.609375 5.128906 -16.363281 4.546875 -15.875 C 3.960938 -15.382812 3.671875 -14.785156 3.671875 -14.078125 C 3.671875 -13.265625 4.070312 -12.554688 4.875 -11.953125 C 5.445312 -11.535156 6.238281 -11.035156 7.25 -10.453125 C 8.15625 -9.898438 8.90625 -9.425781 9.5 -9.03125 C 10.101562 -8.632812 10.664062 -8.203125 11.1875 -7.734375 C 11.644531 -7.273438 12.007812 -6.753906 12.28125 -6.171875 C 12.5625 -5.585938 12.703125 -4.988281 12.703125 -4.375 C 12.703125 -3.53125 12.46875 -2.738281 12 -2 C 11.539062 -1.269531 10.90625 -0.691406 10.09375 -0.265625 C 9.28125 0.160156 8.390625 0.375 7.421875 0.375 C 6.804688 0.375 6.257812 0.316406 5.78125 0.203125 C 5.3125 0.0976562 4.816406 -0.0390625 4.296875 -0.21875 C 3.734375 -0.425781 3.3125 -0.53125 3.03125 -0.53125 C 2.570312 -0.53125 2.226562 -0.226562 2 0.375 L 1.546875 0.375 L 1.546875 -5.40625 L 2 -5.40625 C 2.28125 -3.914062 2.84375 -2.738281 3.6875 -1.875 C 4.53125 -1.007812 5.617188 -0.578125 6.953125 -0.578125 C 7.898438 -0.578125 8.679688 -0.832031 9.296875 -1.34375 C 9.921875 -1.863281 10.234375 -2.515625 10.234375 -3.296875 C 10.234375 -3.703125 10.15625 -4.070312 10 -4.40625 C 9.851562 -4.738281 9.601562 -5.097656 9.25 -5.484375 C 8.9375 -5.816406 8.488281 -6.175781 7.90625 -6.5625 C 7.320312 -6.957031 6.546875 -7.445312 5.578125 -8.03125 C 4.765625 -8.53125 4.140625 -8.925781 3.703125 -9.21875 C 3.265625 -9.507812 2.941406 -9.765625 2.734375 -9.984375 C 1.878906 -10.847656 1.453125 -11.890625 1.453125 -13.109375 C 1.453125 -13.941406 1.664062 -14.695312 2.09375 -15.375 C 2.519531 -16.050781 3.097656 -16.582031 3.828125 -16.96875 C 4.554688 -17.363281 5.378906 -17.5625 6.296875 -17.5625 Z M 6.296875 -17.5625 "/>
            </g>
          </g>
        </g>
        <g clip-rule="nonzero" clip-path="url(#6a61405d5c)">
          <g>
            <g transform="translate(212.418497, 17.910032)">
              <path d="M 6.296875 -17.5625 C 6.867188 -17.5625 7.363281 -17.503906 7.78125 -17.390625 C 8.195312 -17.285156 8.625 -17.140625 9.0625 -16.953125 C 9.269531 -16.867188 9.476562 -16.796875 9.6875 -16.734375 C 9.894531 -16.671875 10.082031 -16.640625 10.25 -16.640625 C 10.65625 -16.640625 10.972656 -16.945312 11.203125 -17.5625 L 11.6875 -17.5625 L 11.6875 -11.859375 L 11.203125 -11.859375 C 11.117188 -12.742188 10.851562 -13.546875 10.40625 -14.265625 C 9.96875 -14.992188 9.421875 -15.566406 8.765625 -15.984375 C 8.109375 -16.398438 7.40625 -16.609375 6.65625 -16.609375 C 5.832031 -16.609375 5.128906 -16.363281 4.546875 -15.875 C 3.960938 -15.382812 3.671875 -14.785156 3.671875 -14.078125 C 3.671875 -13.265625 4.070312 -12.554688 4.875 -11.953125 C 5.445312 -11.535156 6.238281 -11.035156 7.25 -10.453125 C 8.15625 -9.898438 8.90625 -9.425781 9.5 -9.03125 C 10.101562 -8.632812 10.664062 -8.203125 11.1875 -7.734375 C 11.644531 -7.273438 12.007812 -6.753906 12.28125 -6.171875 C 12.5625 -5.585938 12.703125 -4.988281 12.703125 -4.375 C 12.703125 -3.53125 12.46875 -2.738281 12 -2 C 11.539062 -1.269531 10.90625 -0.691406 10.09375 -0.265625 C 9.28125 0.160156 8.390625 0.375 7.421875 0.375 C 6.804688 0.375 6.257812 0.316406 5.78125 0.203125 C 5.3125 0.0976562 4.816406 -0.0390625 4.296875 -0.21875 C 3.734375 -0.425781 3.3125 -0.53125 3.03125 -0.53125 C 2.570312 -0.53125 2.226562 -0.226562 2 0.375 L 1.546875 0.375 L 1.546875 -5.40625 L 2 -5.40625 C 2.28125 -3.914062 2.84375 -2.738281 3.6875 -1.875 C 4.53125 -1.007812 5.617188 -0.578125 6.953125 -0.578125 C 7.898438 -0.578125 8.679688 -0.832031 9.296875 -1.34375 C 9.921875 -1.863281 10.234375 -2.515625 10.234375 -3.296875 C 10.234375 -3.703125 10.15625 -4.070312 10 -4.40625 C 9.851562 -4.738281 9.601562 -5.097656 9.25 -5.484375 C 8.9375 -5.816406 8.488281 -6.175781 7.90625 -6.5625 C 7.320312 -6.957031 6.546875 -7.445312 5.578125 -8.03125 C 4.765625 -8.53125 4.140625 -8.925781 3.703125 -9.21875 C 3.265625 -9.507812 2.941406 -9.765625 2.734375 -9.984375 C 1.878906 -10.847656 1.453125 -11.890625 1.453125 -13.109375 C 1.453125 -13.941406 1.664062 -14.695312 2.09375 -15.375 C 2.519531 -16.050781 3.097656 -16.582031 3.828125 -16.96875 C 4.554688 -17.363281 5.378906 -17.5625 6.296875 -17.5625 Z M 6.296875 -17.5625 "/>
            </g>
          </g>
        </g>
      </g>
    </g>
  </g>
</svg>
